<svg data-v-fde0c5aa="" xmlns="http://www.w3.org/2000/svg" viewBox="0 0 300 300" class="iconLeftSlogan"><!----><defs data-v-fde0c5aa=""><!----></defs><rect data-v-fde0c5aa="" fill="#533951" x="0" y="0" width="300px" height="300px" class="logo-background-square"></rect><defs data-v-fde0c5aa=""><!----></defs><g data-v-fde0c5aa="" id="3c194113-9480-4ab2-a4a4-7ff18a3623d2" fill="#DC9592" transform="matrix(2.487706061519942,0,0,2.487706061519942,104.17009078504998,111.13017229484254)"><path d="M2.93 15.13C3.02 15.13 3.15 15.11 3.26 15.02L5.18 8.57L7.04 14.90C7.08 15.05 7.25 15.13 7.42 15.13C7.52 15.13 7.60 15.11 7.71 15.02L9.84 8.61C9.88 8.51 9.93 8.37 9.93 8.27C9.94 8.12 9.81 8.02 9.63 8.02C9.56 8.02 9.51 8.02 9.44 8.05C9.46 8.11 9.46 8.19 9.46 8.25C9.46 8.33 9.42 8.47 9.39 8.54L7.39 14.76L5.39 8.02C5.32 7.98 5.26 7.97 5.18 7.97C5.05 7.97 4.91 8.01 4.84 8.05C4.87 8.11 4.87 8.19 4.87 8.25C4.87 8.33 4.83 8.48 4.82 8.54L2.95 14.76L0.84 8.22C0.80 8.09 0.69 8.02 0.56 8.02C0.46 8.02 0.38 8.05 0.28 8.15C0.35 8.23 0.46 8.46 0.50 8.57L2.59 14.90C2.65 15.05 2.76 15.13 2.93 15.13ZM16.24 13.41C15.99 14.39 15.02 14.78 14.06 14.78C12.75 14.78 11.52 14.07 11.45 11.75C11.90 11.82 12.40 11.89 13.08 11.89C15.22 11.89 16.39 11.19 16.39 9.77C16.39 8.54 15.51 7.85 14.13 7.85C12.08 7.85 11.00 9.31 11.00 11.62C11.00 14 12.14 15.19 14.01 15.19C15.08 15.19 16.00 14.81 16.35 14.01C16.52 13.62 16.41 13.48 16.24 13.41ZM14.10 8.23C14.99 8.23 15.96 8.58 15.96 9.77C15.96 10.95 15.01 11.54 13.24 11.54C12.73 11.54 11.98 11.48 11.45 11.40C11.51 9.24 12.59 8.23 14.10 8.23ZM23.20 13.41C22.95 14.39 21.98 14.78 21.01 14.78C19.71 14.78 18.48 14.07 18.41 11.75C18.86 11.82 19.36 11.89 20.03 11.89C22.18 11.89 23.35 11.19 23.35 9.77C23.35 8.54 22.47 7.85 21.08 7.85C19.04 7.85 17.96 9.31 17.96 11.62C17.96 14 19.10 15.19 20.97 15.19C22.04 15.19 22.96 14.81 23.31 14.01C23.48 13.62 23.37 13.48 23.20 13.41ZM21.06 8.23C21.95 8.23 22.92 8.58 22.92 9.77C22.92 10.95 21.97 11.54 20.20 11.54C19.68 11.54 18.94 11.48 18.41 11.40C18.47 9.24 19.54 8.23 21.06 8.23ZM31.14 14.50C31.01 14.71 30.83 14.74 30.73 14.74C30.52 14.74 30.39 14.63 30.24 14.36L29.01 12.15C28.94 12.04 28.88 11.93 28.78 11.82C29.75 11.38 30.67 10.65 30.67 9.49C30.67 8.41 29.99 7.85 28.97 7.85C27.52 7.85 26.38 8.85 25.96 10.33L25.97 6.06C25.97 5.57 26.01 5.07 26.05 4.94C26.00 4.89 25.93 4.83 25.80 4.83C25.63 4.83 25.54 4.94 25.54 5.14L25.55 14.83C25.55 15.02 25.63 15.13 25.79 15.13C25.91 15.13 25.98 15.08 26.04 15.02C25.97 14.73 25.96 14.60 25.96 12.77C26.64 12.59 27.58 12.31 28.43 11.97L29.90 14.59C30.06 14.87 30.32 15.13 30.65 15.13C30.86 15.13 31.21 15.01 31.21 14.71C31.21 14.64 31.19 14.57 31.14 14.50ZM25.96 12.43C25.96 9.93 27.09 8.25 28.94 8.25C29.69 8.25 30.25 8.61 30.25 9.51C30.25 11.12 28.10 11.82 25.96 12.43ZM38.61 14.48C38.51 14.70 38.35 14.73 38.23 14.73C37.98 14.73 37.81 14.55 37.81 14.03L37.83 5.14C37.83 4.94 37.73 4.83 37.56 4.83C37.44 4.83 37.37 4.89 37.31 4.94C37.35 5.11 37.38 5.47 37.38 6.23L37.39 9.23C37.09 8.36 36.33 7.85 35.27 7.85C33.38 7.85 32.38 9.42 32.38 11.91C32.38 13.01 32.58 15.19 34.71 15.19C36.12 15.19 36.96 14.24 37.39 13.09L37.39 14C37.39 14.74 37.66 15.12 38.19 15.12C38.53 15.12 38.75 14.99 38.75 14.78C38.75 14.69 38.71 14.59 38.61 14.48ZM34.73 14.80C33.00 14.80 32.83 12.92 32.83 11.89C32.83 9.41 33.78 8.25 35.18 8.25C36.97 8.25 37.39 9.77 37.39 11.02C37.39 13.20 36.34 14.80 34.73 14.80ZM46.42 14.39C46.31 14.63 46.07 14.77 45.89 14.77C45.56 14.77 45.36 14.55 45.36 14.03L45.36 10.85C45.36 8.90 44.52 7.85 42.71 7.85C41.26 7.85 40.32 8.39 40.32 9.49C40.32 10.02 40.63 10.65 41.05 10.65C41.13 10.65 41.31 10.61 41.43 10.43C40.95 10.32 40.73 9.83 40.73 9.46C40.73 8.47 41.80 8.25 42.63 8.25C44.25 8.25 44.94 9.11 44.94 10.85L44.94 11.21C44.07 11.12 43.04 11.19 42.22 11.40C40.74 11.80 40.03 12.60 40.03 13.59C40.03 14.49 40.56 15.19 41.68 15.19C42.92 15.19 44.23 14.32 44.94 12.78L44.94 14C44.94 14.70 45.22 15.16 45.88 15.16C46.19 15.16 46.55 14.99 46.55 14.69C46.55 14.60 46.52 14.50 46.42 14.39ZM41.76 14.81C40.81 14.81 40.47 14.21 40.47 13.57C40.47 12.70 41.12 12.11 42.25 11.77C42.95 11.56 44.18 11.44 44.94 11.51C44.90 13.12 43.19 14.81 41.76 14.81ZM52.88 8.16C52.88 7.97 52.79 7.85 52.64 7.85C52.51 7.85 52.44 7.91 52.39 7.97C52.47 8.29 52.47 8.76 52.47 11.28C52.47 14.03 51.09 14.77 49.94 14.77C48.79 14.77 48.29 14.04 48.29 12.14L48.27 8.16C48.27 7.97 48.19 7.85 48.03 7.85C47.91 7.85 47.84 7.91 47.78 7.97C47.84 8.19 47.87 8.58 47.87 9.18L47.88 12.12C47.89 14.38 48.62 15.16 49.92 15.16C51.16 15.16 52.09 14.43 52.47 13.24L52.47 14.15C52.47 16.83 51.73 17.99 49.88 17.99C49.18 17.99 48.19 17.75 48.19 16.74C48.19 16.62 48.20 16.28 48.47 16.14C48.41 16.06 48.31 16.02 48.22 16.02C47.94 16.02 47.78 16.41 47.78 16.84C47.78 17.95 48.90 18.38 49.91 18.38C51.63 18.38 52.91 17.40 52.91 14.38ZM57.30 15.19C59.42 15.19 59.92 14.21 59.92 13.44C59.92 12.15 58.59 11.79 57.44 11.26C56.45 10.79 55.54 10.44 55.54 9.38C55.54 8.51 56.41 8.23 57.33 8.23C58.52 8.23 59.25 8.58 59.25 9.37C59.25 9.48 59.23 9.60 59.18 9.73C59.30 9.77 59.42 9.77 59.50 9.72C59.64 9.63 59.68 9.49 59.68 9.28C59.68 8.40 58.90 7.84 57.36 7.84C56.14 7.84 55.09 8.27 55.09 9.42C55.09 10.71 56.13 11.10 57.22 11.63C58.31 12.17 59.47 12.42 59.47 13.47C59.47 14.32 58.56 14.80 57.26 14.80C56.04 14.80 55.19 14.34 55.19 13.29C55.19 13.09 55.22 12.98 55.27 12.84C54.91 12.80 54.75 12.99 54.75 13.43C54.75 14.36 55.44 15.19 57.30 15.19ZM62.16 15.19C62.41 15.19 62.64 14.97 62.64 14.71C62.64 14.46 62.41 14.24 62.16 14.24C61.91 14.24 61.68 14.46 61.68 14.71C61.68 14.97 61.91 15.19 62.16 15.19Z"></path></g><defs data-v-fde0c5aa=""><!----></defs><g data-v-fde0c5aa="" id="72e9a8d8-832c-4b72-979f-6b51dab4c57c" stroke="none" fill="#DC9592" transform="matrix(0.6403289936449523,0,0,0.6403289936449523,33.596710063550475,117.98355031775239)"><path d="M65.095 5H64V3a1 1 0 1 0-2 0v2h-9V3a1 1 0 1 0-2 0v2h-9V3a1 1 0 0 0-2 0v2h-9V3a1 1 0 0 0-2 0v2H19V3a1 1 0 0 0-2 0v2h-1.095A5.91 5.91 0 0 0 10 10.904v81.191A5.911 5.911 0 0 0 15.905 98h49.189A5.911 5.911 0 0 0 71 92.096V10.904A5.91 5.91 0 0 0 65.095 5zM12 10.904A3.909 3.909 0 0 1 15.905 7H17v1.212c-1.732.562-2.996 2.172-2.996 4.089 0 2.381 1.937 4.318 4.317 4.318s4.317-1.937 4.317-4.318c0-2.148-1.582-3.92-3.638-4.249V7h10v1.047c-2.082.307-3.69 2.088-3.69 4.254 0 2.381 1.937 4.318 4.317 4.318s4.317-1.937 4.317-4.318c0-1.898-1.239-3.496-2.945-4.073V7h9v1.092a4.32 4.32 0 0 0-3.383 4.209 4.323 4.323 0 0 0 4.317 4.318 4.323 4.323 0 0 0 4.318-4.318c0-2.01-1.388-3.69-3.252-4.168V7h9v1.188c-1.773.537-3.076 2.168-3.076 4.114a4.323 4.323 0 0 0 4.317 4.318 4.322 4.322 0 0 0 4.317-4.318c0-2.121-1.54-3.88-3.559-4.241V7h9v1.283c-1.615.625-2.769 2.185-2.769 4.018a4.322 4.322 0 0 0 4.316 4.318 4.322 4.322 0 0 0 4.317-4.318c0-2.226-1.699-4.042-3.865-4.271V7h1.095A3.91 3.91 0 0 1 69 10.904V25H12V10.904zM18 13a1 1 0 0 0 1-1v-1.903a2.312 2.312 0 0 1 1.638 2.204 2.32 2.32 0 0 1-2.317 2.318A2.314 2.314 0 1 1 17 10.402V12a1 1 0 0 0 1 1zm12 0a1 1 0 0 0 1-1v-1.556a2.31 2.31 0 0 1 .945 1.857c0 1.278-1.04 2.318-2.317 2.318s-2.317-1.04-2.317-2.318c0-1.059.718-1.944 1.69-2.22V12A.999.999 0 0 0 30 13zm11 0a1 1 0 0 0 1-1v-1.744a2.31 2.31 0 0 1 1.252 2.045 2.32 2.32 0 0 1-2.318 2.318 2.32 2.32 0 0 1-2.317-2.318c0-.945.57-1.757 1.383-2.117V12a1 1 0 0 0 1 1zm11 0a1 1 0 0 0 1-1v-1.878a2.313 2.313 0 0 1 1.559 2.179 2.32 2.32 0 0 1-2.317 2.318 2.313 2.313 0 1 1-1.241-4.268V12A.998.998 0 0 0 52 13zm11 0a1 1 0 0 0 1-1v-1.97a2.32 2.32 0 0 1 1.865 2.271c0 1.278-1.04 2.318-2.317 2.318s-2.316-1.04-2.316-2.318c0-.681.3-1.288.769-1.711V12A.998.998 0 0 0 63 13zm2.095 83h-49.19A3.909 3.909 0 0 1 12 92.096V27h57v65.096A3.909 3.909 0 0 1 65.095 96z"></path><path d="M63 36H19a1 1 0 0 0 0 2h44a1 1 0 1 0 0-2zM63 47H19a1 1 0 0 0 0 2h44a1 1 0 1 0 0-2zM63 57H19a1 1 0 1 0 0 2h44a1 1 0 1 0 0-2zM63 67H19a1 1 0 1 0 0 2h44a1 1 0 1 0 0-2zM63 78H19a1 1 0 1 0 0 2h44a1 1 0 1 0 0-2zM84.014 36.54a2.565 2.565 0 0 0 2.562-2.562c0-1.413-1.149-2.562-2.562-2.562s-2.561 1.149-2.561 2.562a2.564 2.564 0 0 0 2.561 2.562zm0-3.124a.562.562 0 1 1-.001 1.125.562.562 0 0 1 .001-1.125z"></path><path d="M90 64a1 1 0 0 0-1 1V53.056c-.003-.076-.231-7.562-.201-9.319.009-.484.179-.908.328-1.282.207-.518.465-1.162.045-1.782-.401-.593-1.151-.663-1.622-.671l1.621-6.771c.017-.022.037-.04.052-.063a1 1 0 0 0-.319-1.377c-2.994-1.869-3.857-2.612-3.857-7.216a1 1 0 0 0-1-1c-.006 0-.011.003-.017.003-.005 0-.01-.003-.016-.003a1 1 0 0 0-1 1c0 4.605-.863 5.348-3.855 7.216a1 1 0 0 0-.319 1.377c.015.024.035.041.052.063l1.621 6.778c-.607.018-1.239.129-1.605.662-.424.616-.176 1.266.024 1.788.143.373.304.795.312 1.278.031 1.754-.24 9.238-.243 9.35v11.52a.986.986 0 0 0-.927-.607h-.004c-.553 0-.998.418-.996.97l.003.648a.99.99 0 0 0 .003.774l.1 23.728c-.033.442-.146 3.04 1.571 4.938 1.17 1.294 2.878 1.95 5.075 1.95 3.124 0 5.162-.77 6.231-2.353.944-1.396.943-3.154.943-4.794V65a1 1 0 0 0-1-1zm-8-22h5.157c-.165.436-.346 1.014-.358 1.701-.031 1.806.192 9.106.201 9.385V64h-6V53.122c0-.31.275-7.613.244-9.422-.014-.687-.191-1.267-.35-1.7H82zm2.03-11.962c.657 1.209 1.672 2.06 3.128 3.01l-1.648 6.883c-.006.023.001.046-.003.069h-2.955c-.003-.023.004-.045-.002-.069l-1.646-6.883c1.455-.95 2.469-1.801 3.126-3.01zM89 89.95c0 1.387.001 2.698-.6 3.587-.669.99-2.165 1.473-4.574 1.473-1.602 0-2.808-.429-3.582-1.279-1.248-1.368-1.071-3.446-1.069-3.463.003-.035.005-.061.005-.096L79.083 67H89v22.95z"></path><path d="M84.037 92.822c1.762 0 3.663-1.209 3.663-3.162 0-.855-.28-1.423-.506-1.878-.211-.429-.379-.767-.381-1.43-.004-.853-.002-1.724 0-2.633.001-.891.003-1.818 0-2.801-.003-.851-.002-1.862-.002-2.937.001-1.431.002-2.974-.005-4.4-.002-.317.001-.611.003-.884.013-1.4.021-2.412-.659-3.099-.4-.403-.958-.6-1.706-.6h-.777c-.748 0-1.307.196-1.707.601-.68.686-.672 1.697-.659 3.099.002.271.005.565.003.884a884.124 884.124 0 0 0-.005 4.63c0 1.103.001 2.135-.002 2.968-.002.978-.001 1.87 0 2.726.002.881.003 1.722 0 2.578-.002.654-.166.974-.374 1.378-.229.444-.513.998-.513 1.861 0 1.94 1.844 3.099 3.627 3.099zm-1.336-4.045c.25-.486.593-1.152.596-2.286.003-.859.002-1.704 0-2.588-.001-.854-.002-1.743 0-2.717.003-.835.002-1.869.002-2.975-.001-1.52-.002-3.173.005-4.618.002-.328-.001-.632-.003-.912-.006-.67-.014-1.504.043-1.646.001 0 .081-.036.323-.036h.777c.17 0 .263.019.279.011.099.231.092 1.026.086 1.67-.002.281-.005.585-.003.912.007 1.423.006 2.961.005 4.388 0 1.078-.001 2.093.002 2.945.003.979.001 1.902 0 2.79-.002.913-.004 1.788 0 2.645.004 1.126.328 1.781.588 2.308.187.377.299.604.299.992 0 .685-.877 1.162-1.663 1.162-.656 0-1.627-.35-1.627-1.099 0-.379.11-.592.291-.946z"></path></g><defs data-v-fde0c5aa=""><!----></defs><g data-v-fde0c5aa="" id="fa8feb9b-6eae-4943-af84-7e9d384b7a2d" fill="#DC9592" transform="matrix(0.28889966018156066,0,0,0.28889966018156066,104.65575172779828,166.0163985757349)"><path d="M0.73 5.77C0.73 9.07 5.71 8.20 5.71 10.65C5.71 11.59 4.87 12.31 3.89 12.31C3.07 12.31 1.47 11.83 1.44 11.47L1.36 10.15C1.34 9.97 1.27 9.91 1.09 9.91L1.02 9.91C0.81 9.91 0.81 10.00 0.81 10.12C0.81 10.32 0.92 11.66 0.95 12.17C0.97 12.38 2.23 12.85 3.77 12.85C5.33 12.85 6.94 11.87 6.94 10.11C6.94 6.79 1.97 7.87 1.97 5.32C1.97 4.31 2.76 3.56 3.79 3.56C4.82 3.56 5.91 4.58 5.91 4.89C5.91 5.01 5.87 5.73 5.87 5.78C5.87 5.92 5.91 5.99 6.17 5.99C6.41 5.99 6.43 5.94 6.43 5.75C6.43 5.04 6.51 3.68 6.51 3.53C6.51 3.30 6.47 3.29 6.20 3.29C5.98 3.29 5.96 3.32 5.95 3.53C5.95 3.61 5.94 3.78 5.89 3.78C5.84 3.78 5.75 3.74 5.68 3.68C4.89 3.14 4.27 3.08 3.77 3.08C2.24 3.08 0.73 4.17 0.73 5.77ZM14.91 12.39C14.91 12.63 14.94 12.68 15.13 12.68C15.46 12.68 16.42 12.64 16.84 12.64C17.26 12.64 21.77 12.68 22.09 12.68C22.22 12.68 22.37 12.66 22.37 12.49C22.37 12.07 22.41 11.23 22.41 10.53C22.41 10.39 22.26 10.39 22.13 10.39C22.02 10.39 21.90 10.39 21.90 10.51C21.88 11.06 21.88 11.41 21.85 11.76C21.83 12.01 21.83 12.04 21.73 12.04C21.57 12.04 18.94 12.08 17.44 12.08C17.37 12.08 17.33 10.11 17.29 8.26C17.29 8.06 17.33 8.09 17.47 8.09L19.75 8.09C20.45 8.09 20.48 8.20 20.48 8.30L20.48 9.00C20.48 9.14 20.66 9.14 20.78 9.14C20.87 9.14 21 9.13 21 9.02C21 8.83 20.97 8.33 20.97 7.83C20.97 7.32 21 6.83 21 6.71C21 6.59 20.86 6.58 20.76 6.58C20.65 6.58 20.48 6.59 20.48 6.72L20.48 7.45C20.48 7.62 20.03 7.63 19.75 7.63L17.42 7.63C17.30 7.63 17.29 7.63 17.29 7.45C17.28 6.75 17.26 6.06 17.26 5.46C17.26 5.12 17.26 3.71 17.35 3.71C18.58 3.71 21.08 3.75 21.08 3.81C21.08 3.99 21.04 4.83 21.04 4.89C21.04 5.04 21.11 5.10 21.29 5.10C21.49 5.10 21.56 5.08 21.56 4.94C21.56 3.85 21.62 3.36 21.62 3.09C21.62 2.91 21.53 2.90 21.34 2.90C21.14 2.90 21.14 2.95 21.11 3.11C21.10 3.25 21.17 3.25 20.26 3.25C19.64 3.25 17.50 3.29 16.73 3.29C16.24 3.29 15.30 3.25 15.20 3.25C15.08 3.25 15.02 3.30 15.02 3.49C15.02 3.72 15.09 3.74 15.26 3.74L15.92 3.74C15.97 3.74 16.04 4.79 16.04 5.71C16.04 5.80 16.10 8.27 16.10 9.83L16.10 11.17C16.10 11.84 16.07 12.18 16.04 12.18L15.19 12.18C14.97 12.18 14.91 12.21 14.91 12.39ZM30.38 12.39C30.38 12.63 30.41 12.68 30.60 12.68C30.93 12.68 31.89 12.64 32.31 12.64C32.73 12.64 37.09 12.68 37.41 12.68C37.67 12.68 37.74 12.66 37.76 12.49C37.81 12.08 38.05 10.72 38.05 10.60C38.05 10.47 37.90 10.44 37.73 10.43C37.63 10.42 37.55 10.46 37.53 10.56L37.37 11.76C37.32 12.05 37.31 12.03 37.09 12.04C36.93 12.05 34.43 12.12 33.00 12.12C32.96 12.12 32.91 11.38 32.91 10.54L32.91 6.66C32.91 5.40 32.93 3.70 33.03 3.70L34.01 3.70C34.24 3.70 34.27 3.63 34.27 3.44C34.27 3.23 34.26 3.19 34.02 3.19C33.70 3.19 32.76 3.23 32.34 3.23C31.92 3.23 30.98 3.19 30.76 3.19C30.53 3.19 30.48 3.22 30.48 3.44C30.48 3.65 30.52 3.70 30.72 3.70L31.54 3.70C31.58 3.70 31.61 4.23 31.61 4.90L31.61 8.13C31.61 10.07 31.58 12.18 31.50 12.18L30.66 12.18C30.44 12.18 30.38 12.21 30.38 12.39ZM45.67 12.39C45.67 12.63 45.70 12.68 45.89 12.68C46.21 12.68 47.18 12.64 47.60 12.64C48.02 12.64 52.53 12.68 52.85 12.68C52.98 12.68 53.13 12.66 53.13 12.49C53.13 12.07 53.17 11.23 53.17 10.53C53.17 10.39 53.02 10.39 52.89 10.39C52.78 10.39 52.65 10.39 52.65 10.51C52.64 11.06 52.64 11.41 52.61 11.76C52.58 12.01 52.58 12.04 52.49 12.04C52.33 12.04 49.70 12.08 48.20 12.08C48.13 12.08 48.09 10.11 48.05 8.26C48.05 8.06 48.09 8.09 48.23 8.09L50.51 8.09C51.21 8.09 51.24 8.20 51.24 8.30L51.24 9.00C51.24 9.14 51.42 9.14 51.53 9.14C51.63 9.14 51.76 9.13 51.76 9.02C51.76 8.83 51.73 8.33 51.73 7.83C51.73 7.32 51.76 6.83 51.76 6.71C51.76 6.59 51.62 6.58 51.52 6.58C51.41 6.58 51.24 6.59 51.24 6.72L51.24 7.45C51.24 7.62 50.79 7.63 50.51 7.63L48.17 7.63C48.06 7.63 48.05 7.63 48.05 7.45C48.03 6.75 48.02 6.06 48.02 5.46C48.02 5.12 48.02 3.71 48.10 3.71C49.34 3.71 51.84 3.75 51.84 3.81C51.84 3.99 51.80 4.83 51.80 4.89C51.80 5.04 51.87 5.10 52.05 5.10C52.25 5.10 52.32 5.08 52.32 4.94C52.32 3.85 52.37 3.36 52.37 3.09C52.37 2.91 52.29 2.90 52.09 2.90C51.90 2.90 51.90 2.95 51.87 3.11C51.86 3.25 51.93 3.25 51.02 3.25C50.40 3.25 48.26 3.29 47.49 3.29C47.00 3.29 46.06 3.25 45.96 3.25C45.84 3.25 45.78 3.30 45.78 3.49C45.78 3.72 45.85 3.74 46.02 3.74L46.68 3.74C46.73 3.74 46.80 4.79 46.80 5.71C46.80 5.80 46.86 8.27 46.86 9.83L46.86 11.17C46.86 11.84 46.83 12.18 46.80 12.18L45.95 12.18C45.72 12.18 45.67 12.21 45.67 12.39ZM61.21 7.91C61.21 11.31 63.57 12.87 66.16 12.87C67.94 12.87 69.72 11.90 69.76 11.59C69.93 10.29 69.99 9.70 69.99 9.66C69.99 9.56 69.94 9.52 69.78 9.51C69.72 9.51 69.66 9.49 69.62 9.49C69.51 9.49 69.45 9.53 69.43 9.70L69.24 11.33C69.23 11.45 68.12 12.24 66.56 12.24C64.43 12.24 62.72 10.29 62.72 7.94C62.72 5.42 64.15 3.54 66.15 3.54C68.00 3.54 69.34 5.01 69.34 5.17C69.34 5.29 69.29 6.40 69.29 6.45C69.29 6.59 69.33 6.64 69.59 6.64C69.79 6.64 69.86 6.62 69.86 6.44C69.86 5.73 69.92 3.92 69.92 3.67C69.92 3.47 69.80 3.44 69.59 3.44C69.37 3.44 69.34 3.50 69.34 3.67L69.34 4.05C69.34 4.16 69.30 4.16 69.17 4.06C68.89 3.86 67.91 3.04 66.25 3.04C63.41 3.04 61.21 4.96 61.21 7.91ZM78.11 5.01C78.11 5.17 78.29 5.17 78.41 5.17C78.57 5.17 78.61 5.15 78.62 4.97L78.74 3.89C78.75 3.81 79.30 3.75 80.05 3.75L82.04 3.75C82.10 3.75 82.12 4.35 82.12 4.97C82.12 6.43 82.07 12.18 81.94 12.18L81.07 12.18C80.85 12.18 80.81 12.19 80.81 12.39C80.81 12.63 80.82 12.68 81.02 12.68C81.34 12.68 82.32 12.64 82.74 12.64C83.16 12.64 84.10 12.68 84.42 12.68C84.59 12.68 84.62 12.61 84.62 12.40C84.62 12.24 84.59 12.18 84.42 12.18L83.43 12.18C83.40 12.18 83.40 11.76 83.40 11.31C83.40 9.56 83.48 5.96 83.48 5.92C83.50 5.18 83.50 3.75 83.59 3.75L85.20 3.75C85.92 3.75 86.74 3.78 86.74 3.85C86.74 3.99 86.70 4.90 86.70 4.97C86.70 5.12 86.77 5.17 86.95 5.17C87.15 5.17 87.22 5.17 87.22 5.03C87.22 3.93 87.28 3.40 87.28 3.14C87.28 2.94 87.19 2.94 87.00 2.94C86.84 2.94 86.79 2.98 86.77 3.16C86.77 3.23 86.13 3.28 85.29 3.28L80.29 3.28C79.63 3.28 78.82 3.28 78.82 3.21L78.82 3.07C78.82 2.94 78.69 2.94 78.60 2.94C78.37 2.94 78.34 3.00 78.33 3.19C78.27 3.89 78.11 4.97 78.11 5.01ZM104.41 3.44C104.41 3.68 104.50 3.70 104.66 3.70L105.07 3.70C105.20 3.70 107.45 7.74 107.86 8.50C107.91 8.60 107.95 8.65 107.95 8.81C107.95 10.50 107.94 12.18 107.81 12.18L107.10 12.18C106.88 12.18 106.83 12.19 106.83 12.39C106.83 12.63 106.85 12.68 107.04 12.68C107.24 12.68 108.05 12.64 108.64 12.64C109.47 12.64 110.00 12.68 110.32 12.68C110.49 12.68 110.52 12.61 110.52 12.40C110.52 12.24 110.49 12.18 110.32 12.18L109.35 12.18C109.26 12.18 109.23 9.72 109.23 8.22C109.23 8.18 109.23 8.15 109.27 8.09C109.82 7.22 111.76 3.70 111.83 3.70L112.31 3.70C112.48 3.70 112.57 3.68 112.57 3.44C112.57 3.22 112.49 3.19 112.31 3.19C112.08 3.19 111.85 3.23 111.24 3.23C110.66 3.23 110.32 3.19 110.15 3.19C109.96 3.19 109.91 3.25 109.91 3.49C109.91 3.68 109.98 3.70 110.21 3.70L110.94 3.70C110.95 3.70 110.96 3.71 110.96 3.74C110.96 4.05 109.40 6.99 109.02 7.71C108.91 7.92 108.91 7.88 108.79 7.67C108.39 6.89 107.10 4.56 106.81 3.85C106.75 3.71 106.74 3.70 106.92 3.70L107.74 3.70C107.97 3.70 108.00 3.68 108.00 3.49C108.00 3.25 107.95 3.19 107.80 3.19C107.56 3.19 106.95 3.23 106.15 3.23C105.34 3.23 104.85 3.19 104.66 3.19C104.48 3.19 104.41 3.21 104.41 3.44ZM119.70 8.15C119.70 11.17 122.04 12.80 124.29 12.80C127.08 12.80 129.05 10.89 129.05 8.06C129.05 5.33 127.30 3.11 124.50 3.11C121.90 3.11 119.70 5.10 119.70 8.15ZM121.10 7.77C121.10 5.64 122.39 3.58 124.36 3.58C126.60 3.58 127.68 5.81 127.68 7.94C127.68 10.08 126.57 12.32 124.31 12.32C122.32 12.32 121.10 10.28 121.10 7.77ZM137.16 3.51C137.16 3.75 137.24 3.77 137.41 3.77L137.94 3.77C138.00 3.77 138.00 4.12 138.00 4.55C138.00 5.66 137.98 8.96 137.98 9.42C137.98 11.13 138.24 12.80 141.09 12.80C142.17 12.80 143.33 12.38 143.99 12.00C144.24 11.86 144.54 11.72 144.62 11.72C144.89 11.72 145.15 12.74 145.49 12.74C145.81 12.74 145.82 12.35 145.82 12.25C145.82 11.96 145.88 10.08 145.92 8.16C145.98 6.12 145.96 3.77 146.08 3.77L146.40 3.77C146.62 3.77 146.69 3.75 146.69 3.56C146.69 3.32 146.65 3.26 146.45 3.26C146.31 3.26 145.78 3.30 145.36 3.30C144.94 3.30 144.14 3.26 143.92 3.26C143.74 3.26 143.64 3.28 143.64 3.51C143.64 3.75 143.75 3.77 143.92 3.77L144.62 3.77C144.69 3.77 144.70 4.30 144.70 4.87L144.70 9.14C144.70 11.19 144.70 11.12 144.37 11.34C143.98 11.61 143.16 12.08 141.99 12.08C140.01 12.08 139.22 11.17 139.22 9.41C139.22 8.82 139.29 3.77 139.40 3.77L140.31 3.77C140.53 3.77 140.57 3.75 140.57 3.56C140.57 3.32 140.56 3.26 140.36 3.26C140.04 3.26 139.16 3.30 138.74 3.30C138.32 3.30 137.63 3.26 137.41 3.26C137.23 3.26 137.16 3.28 137.16 3.51ZM154.73 3.51C154.73 3.72 154.80 3.79 154.99 3.79L155.81 3.77C155.90 3.77 155.95 6.61 155.95 8.55L155.95 10.42C155.95 11.30 155.93 12.18 155.89 12.18L155.29 12.18C155.06 12.18 154.99 12.19 154.99 12.39C154.99 12.63 155.04 12.68 155.23 12.68C155.36 12.68 156.18 12.64 156.60 12.64C157.02 12.64 157.79 12.68 158.12 12.68C158.28 12.68 158.31 12.61 158.31 12.40C158.31 12.24 158.28 12.18 158.12 12.18L157.30 12.18C157.23 12.18 157.15 9.18 157.15 8.37C157.15 8.30 157.15 8.26 157.26 8.26C157.65 8.26 158.26 8.27 158.55 8.27C160.79 8.32 160.93 10.00 160.93 11.68L160.93 12.49C160.93 12.61 160.99 12.64 161.08 12.64C161.08 12.64 162.53 12.68 163.00 12.68C163.17 12.68 163.23 12.64 163.23 12.53C163.23 12.24 163.17 12.18 163.02 12.18L162.37 12.18C162.27 12.18 162.25 12.14 162.22 11.31C162.13 8.99 160.76 8.34 159.85 8.05C159.71 8.01 159.74 8.01 159.85 7.95C160.44 7.69 161.76 6.94 161.76 5.63C161.76 3.63 160.06 3.21 158.66 3.21C158.34 3.21 157.05 3.29 156.63 3.29C156.21 3.29 155.23 3.26 155.01 3.26C154.83 3.26 154.73 3.28 154.73 3.51ZM157.15 7.80L157.15 4.40C157.15 4.05 157.18 3.68 157.22 3.68C157.43 3.65 157.71 3.65 157.93 3.65C159.24 3.65 160.48 4.47 160.48 5.82C160.48 6.99 159.94 7.57 159.28 7.88C159.24 7.90 159.19 7.90 159.12 7.90C158.65 7.88 157.93 7.88 157.33 7.87C157.16 7.87 157.15 7.85 157.15 7.80ZM180.43 12.39C180.43 12.63 180.46 12.68 180.66 12.68C180.89 12.68 181.40 12.64 181.82 12.64C182.24 12.64 182.73 12.68 183.05 12.68C183.22 12.68 183.25 12.61 183.25 12.40C183.25 12.24 183.22 12.18 183.05 12.18L182.08 12.18C182.03 12.18 182.01 11.54 182.01 10.79C182.01 8.96 182.06 6.13 182.13 4.28C182.15 3.88 182.18 3.91 182.32 4.27L185.58 12.32C185.68 12.54 185.75 12.74 185.86 12.74C185.96 12.74 186.03 12.63 186.12 12.45C186.45 11.79 186.63 11.75 186.90 11.09L189.49 4.47C189.62 4.16 189.66 4.02 189.67 4.47C189.70 5.66 189.74 8.47 189.74 9.74C189.74 10.99 189.70 12.18 189.64 12.18L189.01 12.18C188.79 12.18 188.72 12.19 188.72 12.39C188.72 12.63 188.75 12.68 188.94 12.68C189.14 12.68 189.84 12.64 190.44 12.64C190.86 12.64 191.62 12.68 191.94 12.68C192.11 12.68 192.14 12.61 192.14 12.40C192.14 12.22 192.08 12.18 191.91 12.18L191.18 12.18C191.07 12.18 190.97 8.44 190.97 6.03L190.97 4.77C190.97 4.17 191.00 3.77 191.04 3.70L191.70 3.70C191.93 3.70 191.97 3.68 191.97 3.49C191.97 3.25 191.95 3.19 191.76 3.19C191.44 3.19 190.75 3.23 190.33 3.23L189.66 3.23C189.43 3.23 189.41 3.29 189.29 3.58L186.55 10.72C186.47 10.95 186.44 11.02 186.33 10.74L183.39 3.40C183.32 3.22 183.26 3.19 183.12 3.19C183.04 3.19 182.55 3.23 182.24 3.23C181.73 3.23 180.88 3.19 180.68 3.19C180.54 3.19 180.54 3.26 180.54 3.47C180.54 3.64 180.54 3.70 180.68 3.70L181.38 3.70C181.65 3.70 181.65 3.72 181.65 3.84C181.65 4.82 181.44 9.94 181.40 10.79C181.36 11.55 181.36 12.18 181.30 12.18L180.73 12.18C180.50 12.18 180.43 12.19 180.43 12.39ZM200.03 12.39C200.03 12.63 200.06 12.68 200.26 12.68C200.58 12.68 201.54 12.64 201.96 12.64C202.38 12.64 206.89 12.68 207.21 12.68C207.34 12.68 207.49 12.66 207.49 12.49C207.49 12.07 207.54 11.23 207.54 10.53C207.54 10.39 207.38 10.39 207.26 10.39C207.14 10.39 207.02 10.39 207.02 10.51C207.00 11.06 207.00 11.41 206.98 11.76C206.95 12.01 206.95 12.04 206.85 12.04C206.70 12.04 204.06 12.08 202.57 12.08C202.50 12.08 202.45 10.11 202.41 8.26C202.41 8.06 202.45 8.09 202.59 8.09L204.88 8.09C205.58 8.09 205.60 8.20 205.60 8.30L205.60 9.00C205.60 9.14 205.79 9.14 205.90 9.14C206.00 9.14 206.12 9.13 206.12 9.02C206.12 8.83 206.09 8.33 206.09 7.83C206.09 7.32 206.12 6.83 206.12 6.71C206.12 6.59 205.98 6.58 205.88 6.58C205.77 6.58 205.60 6.59 205.60 6.72L205.60 7.45C205.60 7.62 205.16 7.63 204.88 7.63L202.54 7.63C202.43 7.63 202.41 7.63 202.41 7.45C202.40 6.75 202.38 6.06 202.38 5.46C202.38 5.12 202.38 3.71 202.47 3.71C203.70 3.71 206.21 3.75 206.21 3.81C206.21 3.99 206.16 4.83 206.16 4.89C206.16 5.04 206.23 5.10 206.42 5.10C206.61 5.10 206.68 5.08 206.68 4.94C206.68 3.85 206.74 3.36 206.74 3.09C206.74 2.91 206.65 2.90 206.46 2.90C206.26 2.90 206.26 2.95 206.23 3.11C206.22 3.25 206.29 3.25 205.38 3.25C204.76 3.25 202.62 3.29 201.85 3.29C201.36 3.29 200.42 3.25 200.33 3.25C200.20 3.25 200.14 3.30 200.14 3.49C200.14 3.72 200.21 3.74 200.38 3.74L201.04 3.74C201.10 3.74 201.17 4.79 201.17 5.71C201.17 5.80 201.22 8.27 201.22 9.83L201.22 11.17C201.22 11.84 201.19 12.18 201.17 12.18L200.31 12.18C200.09 12.18 200.03 12.21 200.03 12.39ZM215.24 5.01C215.24 5.17 215.42 5.17 215.54 5.17C215.70 5.17 215.74 5.15 215.75 4.97L215.87 3.89C215.88 3.81 216.43 3.75 217.18 3.75L219.17 3.75C219.23 3.75 219.25 4.35 219.25 4.97C219.25 6.43 219.20 12.18 219.07 12.18L218.20 12.18C217.98 12.18 217.94 12.19 217.94 12.39C217.94 12.63 217.95 12.68 218.15 12.68C218.47 12.68 219.45 12.64 219.87 12.64C220.29 12.64 221.23 12.68 221.55 12.68C221.72 12.68 221.75 12.61 221.75 12.40C221.75 12.24 221.72 12.18 221.55 12.18L220.56 12.18C220.53 12.18 220.53 11.76 220.53 11.31C220.53 9.56 220.61 5.96 220.61 5.92C220.63 5.18 220.63 3.75 220.72 3.75L222.33 3.75C223.05 3.75 223.87 3.78 223.87 3.85C223.87 3.99 223.83 4.90 223.83 4.97C223.83 5.12 223.90 5.17 224.08 5.17C224.28 5.17 224.35 5.17 224.35 5.03C224.35 3.93 224.41 3.40 224.41 3.14C224.41 2.94 224.32 2.94 224.13 2.94C223.97 2.94 223.92 2.98 223.90 3.16C223.90 3.23 223.26 3.28 222.42 3.28L217.42 3.28C216.76 3.28 215.95 3.28 215.95 3.21L215.95 3.07C215.95 2.94 215.82 2.94 215.73 2.94C215.50 2.94 215.47 3.00 215.46 3.19C215.40 3.89 215.24 4.97 215.24 5.01ZM232.16 12.39C232.16 12.63 232.16 12.68 232.36 12.68C232.68 12.68 233.62 12.64 234.04 12.64C234.46 12.64 235.28 12.68 235.61 12.68C235.77 12.68 235.77 12.61 235.77 12.40C235.77 12.24 235.77 12.18 235.61 12.18L234.68 12.18C234.60 12.18 234.56 9.93 234.56 8.20C234.56 8.01 234.56 8.01 234.68 8.01L239.92 8.01C239.99 8.01 240.00 8.01 240.00 8.18L240.00 9.91C240.00 11.05 239.99 12.18 239.93 12.18L239.16 12.18C238.94 12.18 238.90 12.19 238.90 12.39C238.90 12.63 238.91 12.68 239.11 12.68C239.43 12.68 240.27 12.64 240.69 12.64C241.11 12.64 241.70 12.68 242.02 12.68C242.19 12.68 242.20 12.61 242.20 12.40C242.20 12.24 242.19 12.18 242.02 12.18L241.28 12.18C241.23 12.18 241.22 9.27 241.22 7.04C241.22 5.40 241.22 3.70 241.26 3.70L241.88 3.70C242.10 3.70 242.14 3.68 242.14 3.49C242.14 3.25 242.13 3.19 241.93 3.19C241.79 3.19 241.16 3.23 240.58 3.23C239.90 3.23 239.30 3.19 239.08 3.19C238.88 3.19 238.85 3.22 238.85 3.44C238.85 3.67 238.92 3.70 239.09 3.70L239.89 3.70C239.95 3.70 240.00 4.79 240.00 5.71L240.00 7.42C240.00 7.59 240.00 7.59 239.83 7.59L234.72 7.59C234.56 7.59 234.56 7.59 234.56 7.38C234.56 6.96 234.54 6.23 234.54 5.53C234.54 4.66 234.56 3.70 234.61 3.70L235.38 3.70C235.61 3.70 235.65 3.68 235.65 3.49C235.65 3.25 235.63 3.19 235.44 3.19C235.12 3.19 234.53 3.23 233.93 3.23C233.34 3.23 232.85 3.19 232.62 3.19C232.44 3.19 232.34 3.21 232.34 3.44C232.34 3.68 232.46 3.70 232.62 3.70L233.24 3.70C233.30 3.70 233.31 5.59 233.31 7.18L233.31 8.61C233.31 10.08 233.30 12.18 233.23 12.18L232.41 12.18C232.19 12.18 232.16 12.19 232.16 12.39ZM250.31 8.15C250.31 11.17 252.64 12.80 254.90 12.80C257.68 12.80 259.66 10.89 259.66 8.06C259.66 5.33 257.91 3.11 255.11 3.11C252.50 3.11 250.31 5.10 250.31 8.15ZM251.71 7.77C251.71 5.64 252.99 3.58 254.97 3.58C257.21 3.58 258.29 5.81 258.29 7.94C258.29 10.08 257.18 12.32 254.91 12.32C252.92 12.32 251.71 10.28 251.71 7.77ZM267.69 12.46C267.69 12.63 267.71 12.70 267.89 12.70C268.04 12.70 269.28 12.64 269.67 12.64C270.52 12.64 271.40 12.70 272.26 12.70C274.88 12.70 277.27 11.07 277.27 7.91C277.27 4.89 274.93 3.07 271.89 3.07C271.33 3.07 270.07 3.23 269.04 3.23C268.56 3.23 268.10 3.22 268.04 3.22C267.86 3.22 267.85 3.32 267.85 3.49C267.85 3.68 267.92 3.70 268.04 3.70L269.01 3.67C269.04 3.67 269.04 4.20 269.04 4.72C269.04 5.91 268.95 12.21 268.87 12.21L267.97 12.21C267.79 12.21 267.69 12.22 267.69 12.46ZM270.27 11.40C270.27 9.46 270.27 7.52 270.28 5.60C270.28 5.03 270.33 3.61 270.37 3.60C270.66 3.53 271.25 3.51 271.60 3.51C274.16 3.51 275.77 5.75 275.77 7.73C275.77 8.95 275.73 12.25 271.05 12.25C270.79 12.25 270.38 12.25 270.28 12.21C270.27 12.19 270.27 11.79 270.27 11.40ZM295.25 8.15C295.25 11.17 297.58 12.80 299.84 12.80C302.62 12.80 304.60 10.89 304.60 8.06C304.60 5.33 302.85 3.11 300.05 3.11C297.44 3.11 295.25 5.10 295.25 8.15ZM296.65 7.77C296.65 5.64 297.93 3.58 299.91 3.58C302.15 3.58 303.23 5.81 303.23 7.94C303.23 10.08 302.12 12.32 299.85 12.32C297.86 12.32 296.65 10.28 296.65 7.77ZM312.70 3.49C312.70 3.72 312.82 3.74 312.98 3.74L313.60 3.74C313.66 3.74 313.73 4.79 313.73 5.71C313.73 5.80 313.78 8.27 313.78 9.83L313.78 11.17C313.78 11.84 313.77 12.18 313.71 12.18L313.12 12.18C312.90 12.18 312.83 12.19 312.83 12.39C312.83 12.63 312.84 12.68 313.04 12.68C313.25 12.68 314.09 12.64 314.51 12.64C314.93 12.64 315.87 12.68 316.19 12.68C316.36 12.68 316.39 12.61 316.39 12.40C316.39 12.24 316.36 12.18 316.19 12.18L315.06 12.18C315.00 12.18 315.01 10.16 314.97 8.33C314.97 8.08 314.96 8.09 315.15 8.09L317.58 8.09C318.28 8.09 318.30 8.19 318.30 8.30L318.30 9.16C318.30 9.28 318.49 9.28 318.60 9.28C318.70 9.28 318.82 9.28 318.82 9.17C318.82 8.99 318.79 8.33 318.79 7.83C318.79 7.32 318.82 6.82 318.82 6.69C318.82 6.58 318.71 6.58 318.58 6.58C318.42 6.58 318.30 6.58 318.30 6.71L318.30 7.45C318.30 7.62 317.86 7.63 317.58 7.63L315.15 7.63C314.94 7.63 314.97 7.66 314.97 7.45C314.96 7.13 314.94 6.15 314.94 5.26C314.94 4.52 314.96 3.71 315.03 3.71C316.43 3.71 318.61 3.75 318.91 3.79C318.91 3.96 318.86 4.82 318.86 4.89C318.86 5.04 318.93 5.10 319.12 5.10C319.31 5.10 319.38 5.08 319.38 4.94C319.38 3.85 319.44 3.36 319.44 3.09C319.44 2.93 319.35 2.90 319.16 2.90C319.03 2.90 318.96 2.90 318.93 3.11C318.92 3.25 318.99 3.25 318.04 3.25C317.44 3.25 315.15 3.29 314.41 3.29C313.92 3.29 312.98 3.25 312.89 3.25C312.76 3.25 312.70 3.30 312.70 3.49ZM336.94 5.01C336.94 5.17 337.12 5.17 337.25 5.17C337.40 5.17 337.44 5.15 337.46 4.97L337.57 3.89C337.58 3.81 338.13 3.75 338.88 3.75L340.87 3.75C340.93 3.75 340.96 4.35 340.96 4.97C340.96 6.43 340.90 12.18 340.77 12.18L339.91 12.18C339.68 12.18 339.64 12.19 339.64 12.39C339.64 12.63 339.65 12.68 339.85 12.68C340.17 12.68 341.15 12.64 341.57 12.64C341.99 12.64 342.93 12.68 343.25 12.68C343.42 12.68 343.45 12.61 343.45 12.40C343.45 12.24 343.42 12.18 343.25 12.18L342.26 12.18C342.23 12.18 342.23 11.76 342.23 11.31C342.23 9.56 342.31 5.96 342.31 5.92C342.33 5.18 342.33 3.75 342.43 3.75L344.04 3.75C344.75 3.75 345.58 3.78 345.58 3.85C345.58 3.99 345.53 4.90 345.53 4.97C345.53 5.12 345.60 5.17 345.79 5.17C345.98 5.17 346.05 5.17 346.05 5.03C346.05 3.93 346.11 3.40 346.11 3.14C346.11 2.94 346.02 2.94 345.83 2.94C345.67 2.94 345.62 2.98 345.60 3.16C345.60 3.23 344.96 3.28 344.12 3.28L339.12 3.28C338.46 3.28 337.65 3.28 337.65 3.21L337.65 3.07C337.65 2.94 337.53 2.94 337.43 2.94C337.20 2.94 337.18 3.00 337.16 3.19C337.11 3.89 336.94 4.97 336.94 5.01ZM351.90 12.39C351.90 12.63 351.90 12.68 352.10 12.68C352.27 12.68 352.59 12.64 353.16 12.64C353.78 12.64 354.33 12.68 354.48 12.68C354.65 12.68 354.65 12.61 354.65 12.40C354.65 12.24 354.65 12.18 354.48 12.18L353.40 12.18C353.40 12.18 353.39 12.18 353.39 12.17C353.40 11.87 354.17 9.90 354.52 9.02C354.59 8.83 354.61 8.79 354.82 8.79L357.64 8.79C357.78 8.79 357.78 8.81 357.85 9.03C358.12 9.77 358.83 11.89 358.83 12.17C358.83 12.18 358.82 12.18 358.82 12.18L358.05 12.18C357.83 12.18 357.81 12.19 357.81 12.39C357.81 12.63 357.83 12.68 357.99 12.68C358.32 12.68 359.18 12.64 359.60 12.64C360.02 12.64 360.70 12.68 360.91 12.68C361.05 12.68 361.06 12.61 361.06 12.40C361.06 12.24 361.05 12.18 360.91 12.18L360.42 12.18C360.32 12.18 359.30 9.34 358.74 7.78L357.06 3.07C357.04 3.00 356.97 2.94 356.89 2.94C356.76 2.94 356.66 3.16 356.58 3.35C356.43 3.71 356.19 3.84 356.08 4.13L354.59 7.57C354.41 8.01 352.70 12.18 352.58 12.18L352.16 12.18C351.93 12.18 351.90 12.19 351.90 12.39ZM354.80 8.33C354.80 8.30 354.83 8.23 354.87 8.13L356.24 4.77C356.29 4.66 356.31 4.61 356.34 4.61C356.36 4.61 356.37 4.63 356.41 4.77L357.57 8.18C357.60 8.25 357.62 8.29 357.62 8.32C357.62 8.36 357.59 8.37 357.49 8.37L354.98 8.37C354.80 8.37 354.80 8.34 354.80 8.33ZM369.03 5.77C369.03 9.07 374.01 8.20 374.01 10.65C374.01 11.59 373.17 12.31 372.19 12.31C371.36 12.31 369.77 11.83 369.74 11.47L369.66 10.15C369.64 9.97 369.57 9.91 369.39 9.91L369.32 9.91C369.11 9.91 369.11 10.00 369.11 10.12C369.11 10.32 369.22 11.66 369.25 12.17C369.26 12.38 370.52 12.85 372.06 12.85C373.63 12.85 375.24 11.87 375.24 10.11C375.24 6.79 370.27 7.87 370.27 5.32C370.27 4.31 371.06 3.56 372.09 3.56C373.11 3.56 374.21 4.58 374.21 4.89C374.21 5.01 374.16 5.73 374.16 5.78C374.16 5.92 374.21 5.99 374.47 5.99C374.71 5.99 374.72 5.94 374.72 5.75C374.72 5.04 374.81 3.68 374.81 3.53C374.81 3.30 374.77 3.29 374.50 3.29C374.28 3.29 374.26 3.32 374.25 3.53C374.25 3.61 374.23 3.78 374.19 3.78C374.14 3.78 374.05 3.74 373.98 3.68C373.18 3.14 372.57 3.08 372.06 3.08C370.54 3.08 369.03 4.17 369.03 5.77ZM383.21 12.39C383.21 12.63 383.22 12.68 383.42 12.68C383.74 12.68 384.64 12.64 385.06 12.64C385.48 12.64 386.43 12.68 386.75 12.68C386.92 12.68 386.93 12.61 386.93 12.40C386.93 12.24 386.90 12.18 386.74 12.18L385.73 12.18C385.63 12.18 385.60 10.12 385.60 8.46C385.60 8.30 385.60 8.30 385.77 8.30L386.04 8.30C386.25 8.30 386.25 8.32 386.32 8.40L389.35 12.00C389.45 12.11 389.52 12.18 389.31 12.18L388.85 12.18C388.67 12.18 388.60 12.19 388.60 12.39C388.60 12.63 388.60 12.68 388.79 12.68C389.12 12.68 389.82 12.64 390.24 12.64C390.66 12.64 391.34 12.68 391.66 12.68C391.83 12.68 391.83 12.61 391.83 12.40C391.83 12.24 391.83 12.18 391.66 12.18L391.44 12.18C391.26 12.18 391.16 12.10 391.03 11.96L387.27 7.62C387.13 7.45 387.10 7.50 387.23 7.36C387.67 6.83 390.21 3.77 390.28 3.77L390.95 3.77C391.17 3.77 391.20 3.75 391.20 3.56C391.20 3.32 391.20 3.26 391.01 3.26C390.81 3.26 390.36 3.30 389.84 3.30C389.31 3.30 388.84 3.26 388.61 3.26C388.43 3.26 388.33 3.28 388.33 3.51C388.33 3.75 388.44 3.77 388.61 3.77L389.17 3.77C389.34 3.77 389.34 3.84 389.23 3.99C388.70 4.66 386.34 7.92 386.05 7.92L385.74 7.92C385.60 7.92 385.60 7.88 385.60 7.69L385.60 5.94C385.60 5.21 385.67 3.77 385.77 3.77L386.54 3.77C386.76 3.77 386.81 3.75 386.81 3.56C386.81 3.32 386.79 3.26 386.60 3.26C386.27 3.26 385.50 3.30 385.08 3.30C384.50 3.30 383.84 3.26 383.61 3.26C383.43 3.26 383.33 3.28 383.33 3.51C383.33 3.75 383.45 3.77 383.61 3.77L384.26 3.77C384.31 3.77 384.34 4.86 384.34 5.78L384.34 9.84C384.34 11.00 384.33 12.18 384.24 12.18L383.50 12.18C383.28 12.18 383.21 12.19 383.21 12.39ZM409.04 12.39C409.04 12.63 409.07 12.68 409.26 12.68C409.50 12.68 410.00 12.64 410.42 12.64C410.84 12.64 411.33 12.68 411.66 12.68C411.82 12.68 411.85 12.61 411.85 12.40C411.85 12.24 411.82 12.18 411.66 12.18L410.69 12.18C410.63 12.18 410.62 11.54 410.62 10.79C410.62 8.96 410.66 6.13 410.73 4.28C410.76 3.88 410.79 3.91 410.93 4.27L414.19 12.32C414.29 12.54 414.36 12.74 414.47 12.74C414.57 12.74 414.64 12.63 414.72 12.45C415.06 11.79 415.24 11.75 415.51 11.09L418.10 4.47C418.22 4.16 418.26 4.02 418.28 4.47C418.31 5.66 418.35 8.47 418.35 9.74C418.35 10.99 418.31 12.18 418.25 12.18L417.62 12.18C417.40 12.18 417.33 12.19 417.33 12.39C417.33 12.63 417.35 12.68 417.55 12.68C417.75 12.68 418.45 12.64 419.05 12.64C419.47 12.64 420.22 12.68 420.55 12.68C420.71 12.68 420.74 12.61 420.74 12.40C420.74 12.22 420.69 12.18 420.52 12.18L419.79 12.18C419.68 12.18 419.58 8.44 419.58 6.03L419.58 4.77C419.58 4.17 419.61 3.77 419.65 3.70L420.31 3.70C420.53 3.70 420.57 3.68 420.57 3.49C420.57 3.25 420.56 3.19 420.36 3.19C420.04 3.19 419.36 3.23 418.94 3.23L418.26 3.23C418.04 3.23 418.01 3.29 417.90 3.58L415.16 10.72C415.07 10.95 415.04 11.02 414.93 10.74L411.99 3.40C411.92 3.22 411.87 3.19 411.73 3.19C411.64 3.19 411.15 3.23 410.84 3.23C410.34 3.23 409.49 3.19 409.29 3.19C409.15 3.19 409.15 3.26 409.15 3.47C409.15 3.64 409.15 3.70 409.29 3.70L409.99 3.70C410.26 3.70 410.26 3.72 410.26 3.84C410.26 4.82 410.05 9.94 410.00 10.79C409.96 11.55 409.96 12.18 409.91 12.18L409.33 12.18C409.11 12.18 409.04 12.19 409.04 12.39ZM428.50 12.39C428.50 12.63 428.50 12.68 428.69 12.68C428.86 12.68 429.18 12.64 429.76 12.64C430.37 12.64 430.92 12.68 431.07 12.68C431.24 12.68 431.24 12.61 431.24 12.40C431.24 12.24 431.24 12.18 431.07 12.18L430.00 12.18C430.00 12.18 429.98 12.18 429.98 12.17C430.00 11.87 430.77 9.90 431.12 9.02C431.19 8.83 431.20 8.79 431.41 8.79L434.24 8.79C434.38 8.79 434.38 8.81 434.45 9.03C434.71 9.77 435.43 11.89 435.43 12.17C435.43 12.18 435.41 12.18 435.41 12.18L434.64 12.18C434.42 12.18 434.41 12.19 434.41 12.39C434.41 12.63 434.42 12.68 434.59 12.68C434.91 12.68 435.78 12.64 436.20 12.64C436.62 12.64 437.29 12.68 437.50 12.68C437.64 12.68 437.65 12.61 437.65 12.40C437.65 12.24 437.64 12.18 437.50 12.18L437.01 12.18C436.91 12.18 435.89 9.34 435.33 7.78L433.65 3.07C433.64 3.00 433.57 2.94 433.48 2.94C433.36 2.94 433.26 3.16 433.17 3.35C433.02 3.71 432.78 3.84 432.67 4.13L431.19 7.57C431.00 8.01 429.30 12.18 429.17 12.18L428.75 12.18C428.53 12.18 428.50 12.19 428.50 12.39ZM431.40 8.33C431.40 8.30 431.42 8.23 431.47 8.13L432.84 4.77C432.88 4.66 432.91 4.61 432.94 4.61C432.95 4.61 432.96 4.63 433.01 4.77L434.17 8.18C434.20 8.25 434.21 8.29 434.21 8.32C434.21 8.36 434.18 8.37 434.08 8.37L431.58 8.37C431.40 8.37 431.40 8.34 431.40 8.33ZM445.41 12.39C445.41 12.63 445.42 12.68 445.62 12.68C445.80 12.68 446.18 12.64 446.80 12.64C447.43 12.64 447.99 12.68 448.31 12.68C448.48 12.68 448.48 12.61 448.48 12.40C448.48 12.24 448.48 12.18 448.31 12.18L447.10 12.18C447.06 12.18 447.05 11.54 447.05 10.79C447.05 9.46 447.06 7.48 447.06 5.99C447.06 5.25 447.06 4.84 447.08 4.28C447.08 4.02 447.15 4.14 447.27 4.28L454.16 12.66C454.24 12.75 454.33 12.89 454.44 12.89C454.55 12.89 454.62 12.77 454.62 12.54C454.62 12.39 454.79 6.65 454.80 4.48C454.80 4.06 454.83 3.70 454.86 3.70L455.49 3.70C455.71 3.70 455.77 3.68 455.77 3.49C455.77 3.25 455.77 3.19 455.57 3.19C455.38 3.19 454.94 3.23 454.38 3.23C453.77 3.23 452.97 3.19 452.87 3.19C452.70 3.19 452.70 3.26 452.70 3.47C452.70 3.64 452.70 3.70 452.87 3.70L454.17 3.70C454.19 3.70 454.19 4.33 454.19 4.44C454.19 5.85 454.22 8.33 454.22 9.70L454.22 10.29C454.22 10.57 454.20 10.65 453.98 10.37L448.29 3.39C448.18 3.25 448.15 3.19 447.99 3.19C447.90 3.19 447.52 3.23 447.22 3.23C446.92 3.23 445.84 3.19 445.65 3.19C445.48 3.19 445.45 3.26 445.45 3.47C445.45 3.64 445.48 3.70 445.65 3.70L446.56 3.70C446.56 4.17 446.52 8.53 446.45 10.79C446.42 11.69 446.43 12.18 446.32 12.18L445.68 12.18C445.45 12.18 445.41 12.19 445.41 12.39ZM463.67 12.39C463.67 12.63 463.67 12.68 463.86 12.68C464.03 12.68 464.35 12.64 464.93 12.64C465.54 12.64 466.09 12.68 466.24 12.68C466.41 12.68 466.41 12.61 466.41 12.40C466.41 12.24 466.41 12.18 466.24 12.18L465.16 12.18C465.16 12.18 465.15 12.18 465.15 12.17C465.16 11.87 465.93 9.90 466.28 9.02C466.35 8.83 466.37 8.79 466.58 8.79L469.41 8.79C469.55 8.79 469.55 8.81 469.62 9.03C469.88 9.77 470.60 11.89 470.60 12.17C470.60 12.18 470.58 12.18 470.58 12.18L469.81 12.18C469.59 12.18 469.57 12.19 469.57 12.39C469.57 12.63 469.59 12.68 469.76 12.68C470.08 12.68 470.95 12.64 471.37 12.64C471.79 12.64 472.46 12.68 472.67 12.68C472.81 12.68 472.82 12.61 472.82 12.40C472.82 12.24 472.81 12.18 472.67 12.18L472.18 12.18C472.08 12.18 471.06 9.34 470.50 7.78L468.82 3.07C468.80 3.00 468.73 2.94 468.65 2.94C468.52 2.94 468.43 3.16 468.34 3.35C468.19 3.71 467.95 3.84 467.84 4.13L466.35 7.57C466.17 8.01 464.46 12.18 464.34 12.18L463.92 12.18C463.69 12.18 463.67 12.19 463.67 12.39ZM466.56 8.33C466.56 8.30 466.59 8.23 466.63 8.13L468.01 4.77C468.05 4.66 468.08 4.61 468.10 4.61C468.12 4.61 468.13 4.63 468.17 4.77L469.34 8.18C469.36 8.25 469.38 8.29 469.38 8.32C469.38 8.36 469.35 8.37 469.25 8.37L466.75 8.37C466.56 8.37 466.56 8.34 466.56 8.33ZM480.37 7.91C480.37 11.40 482.73 12.89 485.32 12.89C487.21 12.89 489.22 11.89 489.22 11.58C489.22 11.12 489.23 10.68 489.23 10.33C489.23 9.81 489.24 9.56 489.37 9.56L489.80 9.56C489.94 9.56 489.96 9.39 489.96 9.30C489.96 9.18 489.94 9.06 489.80 9.06C489.58 9.06 489.22 9.10 488.54 9.10C488.10 9.10 487.35 9.07 486.67 9.06C486.53 9.06 486.53 9.24 486.53 9.35C486.53 9.45 486.56 9.56 486.68 9.56L487.90 9.56C487.94 9.56 488.00 9.87 488.00 10.33C488.00 10.82 487.98 11.41 487.96 11.65C487.94 11.76 487.30 12.39 485.72 12.39C483.48 12.39 481.88 10.29 481.88 7.94C481.88 5.42 483.43 3.54 485.44 3.54C487.33 3.54 488.50 4.87 488.50 5.03C488.50 5.15 488.45 6.12 488.45 6.17C488.45 6.31 488.49 6.36 488.75 6.36C488.95 6.36 489.02 6.33 489.02 6.15C489.02 5.43 489.06 3.75 489.06 3.56C489.06 3.36 488.96 3.33 488.75 3.33C488.53 3.33 488.50 3.39 488.50 3.56L488.50 3.91C488.50 3.99 488.46 4.02 488.33 3.92C488.05 3.72 487.06 3.08 485.49 3.08C482.65 3.08 480.37 4.79 480.37 7.91ZM497.85 12.39C497.85 12.63 497.90 12.68 498.09 12.68C498.41 12.68 499.17 12.64 499.88 12.64C500.54 12.64 501.34 12.68 501.56 12.68C501.73 12.68 501.76 12.61 501.76 12.40C501.76 12.24 501.73 12.18 501.56 12.18L500.60 12.18C500.50 12.18 500.47 9.55 500.47 7.76L500.47 5.87C500.47 5.14 500.50 3.70 500.60 3.70L501.51 3.70C501.73 3.70 501.76 3.68 501.76 3.49C501.76 3.25 501.73 3.19 501.56 3.19C501.24 3.19 500.57 3.23 499.91 3.23C499.10 3.23 498.39 3.19 498.16 3.19C497.98 3.19 497.91 3.21 497.91 3.44C497.91 3.68 497.99 3.70 498.16 3.70L499.09 3.70C499.13 3.70 499.20 4.79 499.20 5.71L499.20 7.08C499.20 8.92 499.18 12.18 499.07 12.18L498.15 12.18C497.92 12.18 497.85 12.19 497.85 12.39ZM509.66 12.39C509.66 12.63 509.67 12.68 509.87 12.68C510.05 12.68 510.43 12.64 511.04 12.64C511.67 12.64 512.23 12.68 512.55 12.68C512.72 12.68 512.72 12.61 512.72 12.40C512.72 12.24 512.72 12.18 512.55 12.18L511.35 12.18C511.31 12.18 511.29 11.54 511.29 10.79C511.29 9.46 511.31 7.48 511.31 5.99C511.31 5.25 511.31 4.84 511.32 4.28C511.32 4.02 511.39 4.14 511.52 4.28L518.41 12.66C518.49 12.75 518.57 12.89 518.69 12.89C518.80 12.89 518.87 12.77 518.87 12.54C518.87 12.39 519.04 6.65 519.05 4.48C519.05 4.06 519.08 3.70 519.11 3.70L519.74 3.70C519.96 3.70 520.02 3.68 520.02 3.49C520.02 3.25 520.02 3.19 519.82 3.19C519.62 3.19 519.19 3.23 518.63 3.23C518.01 3.23 517.22 3.19 517.12 3.19C516.95 3.19 516.95 3.26 516.95 3.47C516.95 3.64 516.95 3.70 517.12 3.70L518.42 3.70C518.43 3.70 518.43 4.33 518.43 4.44C518.43 5.85 518.46 8.33 518.46 9.70L518.46 10.29C518.46 10.57 518.45 10.65 518.22 10.37L512.54 3.39C512.43 3.25 512.40 3.19 512.23 3.19C512.15 3.19 511.77 3.23 511.46 3.23C511.17 3.23 510.09 3.19 509.89 3.19C509.73 3.19 509.70 3.26 509.70 3.47C509.70 3.64 509.73 3.70 509.89 3.70L510.80 3.70C510.80 4.17 510.76 8.53 510.69 10.79C510.66 11.69 510.68 12.18 510.57 12.18L509.92 12.18C509.70 12.18 509.66 12.19 509.66 12.39ZM528.12 7.91C528.12 11.40 530.49 12.89 533.08 12.89C534.97 12.89 536.97 11.89 536.97 11.58C536.97 11.12 536.98 10.68 536.98 10.33C536.98 9.81 537.00 9.56 537.12 9.56L537.56 9.56C537.70 9.56 537.71 9.39 537.71 9.30C537.71 9.18 537.70 9.06 537.56 9.06C537.33 9.06 536.97 9.10 536.30 9.10C535.85 9.10 535.11 9.07 534.42 9.06C534.28 9.06 534.28 9.24 534.28 9.35C534.28 9.45 534.31 9.56 534.44 9.56L535.65 9.56C535.70 9.56 535.75 9.87 535.75 10.33C535.75 10.82 535.74 11.41 535.71 11.65C535.70 11.76 535.05 12.39 533.47 12.39C531.23 12.39 529.63 10.29 529.63 7.94C529.63 5.42 531.19 3.54 533.19 3.54C535.08 3.54 536.26 4.87 536.26 5.03C536.26 5.15 536.20 6.12 536.20 6.17C536.20 6.31 536.24 6.36 536.51 6.36C536.70 6.36 536.77 6.33 536.77 6.15C536.77 5.43 536.82 3.75 536.82 3.56C536.82 3.36 536.72 3.33 536.51 3.33C536.28 3.33 536.26 3.39 536.26 3.56L536.26 3.91C536.26 3.99 536.21 4.02 536.09 3.92C535.81 3.72 534.81 3.08 533.25 3.08C530.40 3.08 528.12 4.79 528.12 7.91Z"></path></g></svg>